<mxfile host="app.diagrams.net" modified="2022-10-14T07:00:48.687Z" agent="5.0 (Macintosh; Intel Mac OS X 10_15_7) AppleWebKit/605.1.15 (KHTML, like Gecko) Version/16.0 Safari/605.1.15" etag="wlDToi2RLbGQHKM2EUj9" version="20.4.0" type="github">
  <diagram id="vh45LGf_iVn-3GEeVIbv" name="Page-1">
    <mxGraphModel dx="867" dy="981" grid="1" gridSize="10" guides="1" tooltips="1" connect="1" arrows="1" fold="1" page="1" pageScale="1" pageWidth="827" pageHeight="1169" math="0" shadow="0">
      <root>
        <mxCell id="0" />
        <mxCell id="1" parent="0" />
        <mxCell id="_Kc1pAn8sklwfJphpSvI-1" value="" style="rounded=0;whiteSpace=wrap;html=1;fillColor=none;dashed=1;" vertex="1" parent="1">
          <mxGeometry x="850" y="1630" width="1410" height="780" as="geometry" />
        </mxCell>
        <mxCell id="_Kc1pAn8sklwfJphpSvI-2" value="" style="rounded=0;whiteSpace=wrap;html=1;fillColor=none;dashed=1;" vertex="1" parent="1">
          <mxGeometry x="845" width="1310" height="1420" as="geometry" />
        </mxCell>
        <mxCell id="_Kc1pAn8sklwfJphpSvI-3" style="edgeStyle=orthogonalEdgeStyle;rounded=0;orthogonalLoop=1;jettySize=auto;html=1;exitX=1;exitY=0.5;exitDx=0;exitDy=0;entryX=0;entryY=0.5;entryDx=0;entryDy=0;" edge="1" parent="1" source="_Kc1pAn8sklwfJphpSvI-4" target="_Kc1pAn8sklwfJphpSvI-6">
          <mxGeometry relative="1" as="geometry" />
        </mxCell>
        <mxCell id="_Kc1pAn8sklwfJphpSvI-4" value="Buka Aplikasi" style="rounded=1;whiteSpace=wrap;html=1;" vertex="1" parent="1">
          <mxGeometry x="880" y="242" width="120" height="60" as="geometry" />
        </mxCell>
        <mxCell id="_Kc1pAn8sklwfJphpSvI-5" style="edgeStyle=orthogonalEdgeStyle;rounded=0;orthogonalLoop=1;jettySize=auto;html=1;exitX=1;exitY=0.5;exitDx=0;exitDy=0;entryX=0;entryY=0.5;entryDx=0;entryDy=0;" edge="1" parent="1" source="_Kc1pAn8sklwfJphpSvI-6" target="_Kc1pAn8sklwfJphpSvI-11">
          <mxGeometry relative="1" as="geometry" />
        </mxCell>
        <mxCell id="_Kc1pAn8sklwfJphpSvI-6" value="Login" style="rounded=1;whiteSpace=wrap;html=1;" vertex="1" parent="1">
          <mxGeometry x="1080" y="242" width="120" height="60" as="geometry" />
        </mxCell>
        <mxCell id="_Kc1pAn8sklwfJphpSvI-7" style="edgeStyle=orthogonalEdgeStyle;orthogonalLoop=1;jettySize=auto;html=1;exitX=1;exitY=0.25;exitDx=0;exitDy=0;entryX=0;entryY=0.5;entryDx=0;entryDy=0;rounded=1;" edge="1" parent="1" source="_Kc1pAn8sklwfJphpSvI-11" target="_Kc1pAn8sklwfJphpSvI-13">
          <mxGeometry relative="1" as="geometry" />
        </mxCell>
        <mxCell id="_Kc1pAn8sklwfJphpSvI-8" style="edgeStyle=orthogonalEdgeStyle;rounded=1;orthogonalLoop=1;jettySize=auto;html=1;exitX=0.75;exitY=1;exitDx=0;exitDy=0;entryX=0;entryY=0.5;entryDx=0;entryDy=0;" edge="1" parent="1" source="_Kc1pAn8sklwfJphpSvI-11" target="_Kc1pAn8sklwfJphpSvI-25">
          <mxGeometry relative="1" as="geometry" />
        </mxCell>
        <mxCell id="_Kc1pAn8sklwfJphpSvI-9" style="edgeStyle=orthogonalEdgeStyle;rounded=1;orthogonalLoop=1;jettySize=auto;html=1;exitX=0.5;exitY=1;exitDx=0;exitDy=0;entryX=0;entryY=0.5;entryDx=0;entryDy=0;" edge="1" parent="1" source="_Kc1pAn8sklwfJphpSvI-11" target="_Kc1pAn8sklwfJphpSvI-26">
          <mxGeometry relative="1" as="geometry">
            <mxPoint x="1350" y="622" as="targetPoint" />
          </mxGeometry>
        </mxCell>
        <mxCell id="_Kc1pAn8sklwfJphpSvI-10" style="edgeStyle=orthogonalEdgeStyle;rounded=0;orthogonalLoop=1;jettySize=auto;html=1;exitX=1;exitY=0.5;exitDx=0;exitDy=0;entryX=0;entryY=0.5;entryDx=0;entryDy=0;" edge="1" parent="1" source="_Kc1pAn8sklwfJphpSvI-11" target="_Kc1pAn8sklwfJphpSvI-17">
          <mxGeometry relative="1" as="geometry" />
        </mxCell>
        <mxCell id="_Kc1pAn8sklwfJphpSvI-11" value="Halaman Utama" style="rounded=1;whiteSpace=wrap;html=1;" vertex="1" parent="1">
          <mxGeometry x="1280" y="242" width="120" height="60" as="geometry" />
        </mxCell>
        <mxCell id="_Kc1pAn8sklwfJphpSvI-12" style="edgeStyle=orthogonalEdgeStyle;rounded=1;orthogonalLoop=1;jettySize=auto;html=1;exitX=1;exitY=0.5;exitDx=0;exitDy=0;entryX=0;entryY=0.5;entryDx=0;entryDy=0;" edge="1" parent="1" source="_Kc1pAn8sklwfJphpSvI-13" target="_Kc1pAn8sklwfJphpSvI-19">
          <mxGeometry relative="1" as="geometry" />
        </mxCell>
        <mxCell id="_Kc1pAn8sklwfJphpSvI-13" value="Kelas" style="rounded=1;whiteSpace=wrap;html=1;" vertex="1" parent="1">
          <mxGeometry x="1489" y="132" width="120" height="60" as="geometry" />
        </mxCell>
        <mxCell id="_Kc1pAn8sklwfJphpSvI-14" value="Riwayat Pembelajaran" style="rounded=1;whiteSpace=wrap;html=1;" vertex="1" parent="1">
          <mxGeometry x="1661" y="242" width="120" height="60" as="geometry" />
        </mxCell>
        <mxCell id="_Kc1pAn8sklwfJphpSvI-15" style="edgeStyle=orthogonalEdgeStyle;rounded=1;orthogonalLoop=1;jettySize=auto;html=1;exitX=0.5;exitY=1;exitDx=0;exitDy=0;entryX=0.5;entryY=0;entryDx=0;entryDy=0;" edge="1" parent="1" source="_Kc1pAn8sklwfJphpSvI-17" target="_Kc1pAn8sklwfJphpSvI-18">
          <mxGeometry relative="1" as="geometry" />
        </mxCell>
        <mxCell id="_Kc1pAn8sklwfJphpSvI-16" style="edgeStyle=orthogonalEdgeStyle;rounded=0;orthogonalLoop=1;jettySize=auto;html=1;exitX=1;exitY=0.5;exitDx=0;exitDy=0;entryX=0;entryY=0.5;entryDx=0;entryDy=0;" edge="1" parent="1" source="_Kc1pAn8sklwfJphpSvI-17" target="_Kc1pAn8sklwfJphpSvI-14">
          <mxGeometry relative="1" as="geometry" />
        </mxCell>
        <mxCell id="_Kc1pAn8sklwfJphpSvI-17" value="Review Materi Terakhir" style="rounded=1;whiteSpace=wrap;html=1;" vertex="1" parent="1">
          <mxGeometry x="1480" y="242" width="120" height="60" as="geometry" />
        </mxCell>
        <mxCell id="_Kc1pAn8sklwfJphpSvI-18" value="Fitur Komentar" style="rounded=1;whiteSpace=wrap;html=1;" vertex="1" parent="1">
          <mxGeometry x="1480" y="340" width="120" height="60" as="geometry" />
        </mxCell>
        <mxCell id="_Kc1pAn8sklwfJphpSvI-19" value="Jadwal Latihan" style="rounded=1;whiteSpace=wrap;html=1;" vertex="1" parent="1">
          <mxGeometry x="1661" y="132" width="120" height="60" as="geometry" />
        </mxCell>
        <mxCell id="_Kc1pAn8sklwfJphpSvI-20" style="edgeStyle=orthogonalEdgeStyle;rounded=1;orthogonalLoop=1;jettySize=auto;html=1;exitX=1;exitY=0.5;exitDx=0;exitDy=0;entryX=0;entryY=0.5;entryDx=0;entryDy=0;" edge="1" parent="1" source="_Kc1pAn8sklwfJphpSvI-25" target="_Kc1pAn8sklwfJphpSvI-27">
          <mxGeometry relative="1" as="geometry" />
        </mxCell>
        <mxCell id="_Kc1pAn8sklwfJphpSvI-21" style="edgeStyle=orthogonalEdgeStyle;rounded=1;orthogonalLoop=1;jettySize=auto;html=1;exitX=1;exitY=0.75;exitDx=0;exitDy=0;entryX=0;entryY=0.5;entryDx=0;entryDy=0;" edge="1" parent="1" source="_Kc1pAn8sklwfJphpSvI-25" target="_Kc1pAn8sklwfJphpSvI-28">
          <mxGeometry relative="1" as="geometry" />
        </mxCell>
        <mxCell id="_Kc1pAn8sklwfJphpSvI-22" style="edgeStyle=orthogonalEdgeStyle;rounded=1;orthogonalLoop=1;jettySize=auto;html=1;entryX=0;entryY=0.5;entryDx=0;entryDy=0;exitX=0.75;exitY=1;exitDx=0;exitDy=0;" edge="1" parent="1" source="_Kc1pAn8sklwfJphpSvI-25" target="_Kc1pAn8sklwfJphpSvI-29">
          <mxGeometry relative="1" as="geometry">
            <mxPoint x="1610" y="592" as="sourcePoint" />
          </mxGeometry>
        </mxCell>
        <mxCell id="_Kc1pAn8sklwfJphpSvI-23" style="edgeStyle=orthogonalEdgeStyle;rounded=1;orthogonalLoop=1;jettySize=auto;html=1;exitX=0.5;exitY=1;exitDx=0;exitDy=0;entryX=0;entryY=0.5;entryDx=0;entryDy=0;" edge="1" parent="1" source="_Kc1pAn8sklwfJphpSvI-25" target="_Kc1pAn8sklwfJphpSvI-31">
          <mxGeometry relative="1" as="geometry" />
        </mxCell>
        <mxCell id="_Kc1pAn8sklwfJphpSvI-24" style="edgeStyle=orthogonalEdgeStyle;rounded=1;orthogonalLoop=1;jettySize=auto;html=1;exitX=0.25;exitY=1;exitDx=0;exitDy=0;entryX=0;entryY=0.5;entryDx=0;entryDy=0;" edge="1" parent="1" source="_Kc1pAn8sklwfJphpSvI-25" target="_Kc1pAn8sklwfJphpSvI-32">
          <mxGeometry relative="1" as="geometry" />
        </mxCell>
        <mxCell id="_Kc1pAn8sklwfJphpSvI-25" value="Menu Pembayaran SPP" style="rounded=1;whiteSpace=wrap;html=1;" vertex="1" parent="1">
          <mxGeometry x="1480" y="429" width="120" height="60" as="geometry" />
        </mxCell>
        <mxCell id="_Kc1pAn8sklwfJphpSvI-26" value="Menu Profil" style="rounded=1;whiteSpace=wrap;html=1;" vertex="1" parent="1">
          <mxGeometry x="1489" y="750" width="120" height="60" as="geometry" />
        </mxCell>
        <mxCell id="_Kc1pAn8sklwfJphpSvI-27" value="Tenggat waktu pembayaran" style="rounded=1;whiteSpace=wrap;html=1;" vertex="1" parent="1">
          <mxGeometry x="1661" y="390" width="120" height="60" as="geometry" />
        </mxCell>
        <mxCell id="_Kc1pAn8sklwfJphpSvI-28" value="Status Pembayaran" style="rounded=1;whiteSpace=wrap;html=1;" vertex="1" parent="1">
          <mxGeometry x="1661" y="459.25" width="120" height="60" as="geometry" />
        </mxCell>
        <mxCell id="_Kc1pAn8sklwfJphpSvI-29" value="Jumlah Pembayaran" style="rounded=1;whiteSpace=wrap;html=1;" vertex="1" parent="1">
          <mxGeometry x="1661" y="529.5" width="120" height="60" as="geometry" />
        </mxCell>
        <mxCell id="_Kc1pAn8sklwfJphpSvI-30" style="edgeStyle=orthogonalEdgeStyle;rounded=1;orthogonalLoop=1;jettySize=auto;html=1;exitX=1;exitY=0.5;exitDx=0;exitDy=0;entryX=0;entryY=0.5;entryDx=0;entryDy=0;" edge="1" parent="1" source="_Kc1pAn8sklwfJphpSvI-31" target="_Kc1pAn8sklwfJphpSvI-34">
          <mxGeometry relative="1" as="geometry">
            <mxPoint x="1910" y="632" as="targetPoint" />
          </mxGeometry>
        </mxCell>
        <mxCell id="_Kc1pAn8sklwfJphpSvI-31" value="Lanjutkan Pembayaran" style="rounded=1;whiteSpace=wrap;html=1;" vertex="1" parent="1">
          <mxGeometry x="1661" y="599" width="120" height="60" as="geometry" />
        </mxCell>
        <mxCell id="_Kc1pAn8sklwfJphpSvI-32" value="Menu Riwayat Pembayaran" style="rounded=1;whiteSpace=wrap;html=1;" vertex="1" parent="1">
          <mxGeometry x="1661" y="669" width="120" height="60" as="geometry" />
        </mxCell>
        <mxCell id="_Kc1pAn8sklwfJphpSvI-33" style="edgeStyle=orthogonalEdgeStyle;rounded=1;orthogonalLoop=1;jettySize=auto;html=1;exitX=1;exitY=0.5;exitDx=0;exitDy=0;entryX=0;entryY=0.5;entryDx=0;entryDy=0;" edge="1" parent="1" source="_Kc1pAn8sklwfJphpSvI-34" target="_Kc1pAn8sklwfJphpSvI-35">
          <mxGeometry relative="1" as="geometry" />
        </mxCell>
        <mxCell id="_Kc1pAn8sklwfJphpSvI-34" value="Konfirmasi Pembayaran" style="rounded=1;whiteSpace=wrap;html=1;" vertex="1" parent="1">
          <mxGeometry x="1831" y="599" width="120" height="60" as="geometry" />
        </mxCell>
        <mxCell id="_Kc1pAn8sklwfJphpSvI-35" value="Invoice" style="rounded=1;whiteSpace=wrap;html=1;" vertex="1" parent="1">
          <mxGeometry x="2001" y="599" width="120" height="60" as="geometry" />
        </mxCell>
        <mxCell id="_Kc1pAn8sklwfJphpSvI-36" value="&lt;font style=&quot;font-size: 12px;&quot;&gt;Parent Side&lt;/font&gt;" style="text;html=1;align=center;verticalAlign=middle;resizable=0;points=[];autosize=1;strokeColor=none;fillColor=none;fontStyle=1" vertex="1" parent="1">
          <mxGeometry x="880" y="211" width="90" height="30" as="geometry" />
        </mxCell>
        <mxCell id="_Kc1pAn8sklwfJphpSvI-37" style="edgeStyle=orthogonalEdgeStyle;rounded=0;orthogonalLoop=1;jettySize=auto;html=1;exitX=1;exitY=0.5;exitDx=0;exitDy=0;entryX=0;entryY=0.5;entryDx=0;entryDy=0;" edge="1" parent="1" source="_Kc1pAn8sklwfJphpSvI-38" target="_Kc1pAn8sklwfJphpSvI-40">
          <mxGeometry relative="1" as="geometry" />
        </mxCell>
        <mxCell id="_Kc1pAn8sklwfJphpSvI-38" value="Buka Aplikasi" style="rounded=1;whiteSpace=wrap;html=1;" vertex="1" parent="1">
          <mxGeometry x="880" y="1062" width="120" height="60" as="geometry" />
        </mxCell>
        <mxCell id="_Kc1pAn8sklwfJphpSvI-39" style="edgeStyle=orthogonalEdgeStyle;rounded=0;orthogonalLoop=1;jettySize=auto;html=1;exitX=1;exitY=0.5;exitDx=0;exitDy=0;entryX=0;entryY=0.5;entryDx=0;entryDy=0;" edge="1" parent="1" source="_Kc1pAn8sklwfJphpSvI-40" target="_Kc1pAn8sklwfJphpSvI-45">
          <mxGeometry relative="1" as="geometry" />
        </mxCell>
        <mxCell id="_Kc1pAn8sklwfJphpSvI-40" value="Login" style="rounded=1;whiteSpace=wrap;html=1;" vertex="1" parent="1">
          <mxGeometry x="1080" y="1062" width="120" height="60" as="geometry" />
        </mxCell>
        <mxCell id="_Kc1pAn8sklwfJphpSvI-41" style="edgeStyle=orthogonalEdgeStyle;rounded=1;orthogonalLoop=1;jettySize=auto;html=1;exitX=1;exitY=0.25;exitDx=0;exitDy=0;entryX=0;entryY=0.5;entryDx=0;entryDy=0;" edge="1" parent="1" source="_Kc1pAn8sklwfJphpSvI-45" target="_Kc1pAn8sklwfJphpSvI-48">
          <mxGeometry relative="1" as="geometry" />
        </mxCell>
        <mxCell id="_Kc1pAn8sklwfJphpSvI-42" style="edgeStyle=orthogonalEdgeStyle;rounded=1;orthogonalLoop=1;jettySize=auto;html=1;exitX=1;exitY=0.5;exitDx=0;exitDy=0;entryX=0;entryY=0.5;entryDx=0;entryDy=0;" edge="1" parent="1" source="_Kc1pAn8sklwfJphpSvI-45" target="_Kc1pAn8sklwfJphpSvI-50">
          <mxGeometry relative="1" as="geometry">
            <Array as="points">
              <mxPoint x="1450" y="1092" />
              <mxPoint x="1450" y="1192" />
            </Array>
          </mxGeometry>
        </mxCell>
        <mxCell id="_Kc1pAn8sklwfJphpSvI-43" style="edgeStyle=orthogonalEdgeStyle;rounded=1;orthogonalLoop=1;jettySize=auto;html=1;exitX=1;exitY=0.75;exitDx=0;exitDy=0;entryX=0;entryY=0.5;entryDx=0;entryDy=0;" edge="1" parent="1" source="_Kc1pAn8sklwfJphpSvI-45" target="_Kc1pAn8sklwfJphpSvI-51">
          <mxGeometry relative="1" as="geometry">
            <Array as="points">
              <mxPoint x="1430" y="1107" />
              <mxPoint x="1430" y="1282" />
            </Array>
          </mxGeometry>
        </mxCell>
        <mxCell id="_Kc1pAn8sklwfJphpSvI-44" style="edgeStyle=orthogonalEdgeStyle;rounded=1;orthogonalLoop=1;jettySize=auto;html=1;exitX=0.75;exitY=1;exitDx=0;exitDy=0;entryX=0;entryY=0.5;entryDx=0;entryDy=0;" edge="1" parent="1" source="_Kc1pAn8sklwfJphpSvI-45" target="_Kc1pAn8sklwfJphpSvI-54">
          <mxGeometry relative="1" as="geometry" />
        </mxCell>
        <mxCell id="_Kc1pAn8sklwfJphpSvI-45" value="Halaman Utama" style="rounded=1;whiteSpace=wrap;html=1;" vertex="1" parent="1">
          <mxGeometry x="1280" y="1062" width="120" height="60" as="geometry" />
        </mxCell>
        <mxCell id="_Kc1pAn8sklwfJphpSvI-46" value="Coach Side" style="text;html=1;align=center;verticalAlign=middle;resizable=0;points=[];autosize=1;strokeColor=none;fillColor=none;fontStyle=1" vertex="1" parent="1">
          <mxGeometry x="881" y="1030" width="90" height="30" as="geometry" />
        </mxCell>
        <mxCell id="_Kc1pAn8sklwfJphpSvI-47" style="edgeStyle=orthogonalEdgeStyle;rounded=1;orthogonalLoop=1;jettySize=auto;html=1;exitX=1;exitY=0.5;exitDx=0;exitDy=0;entryX=0;entryY=0.5;entryDx=0;entryDy=0;" edge="1" parent="1" source="_Kc1pAn8sklwfJphpSvI-48" target="_Kc1pAn8sklwfJphpSvI-53">
          <mxGeometry relative="1" as="geometry" />
        </mxCell>
        <mxCell id="_Kc1pAn8sklwfJphpSvI-48" value="List Kelas yang diajar" style="rounded=1;whiteSpace=wrap;html=1;" vertex="1" parent="1">
          <mxGeometry x="1520" y="1072" width="120" height="60" as="geometry" />
        </mxCell>
        <mxCell id="_Kc1pAn8sklwfJphpSvI-49" style="edgeStyle=orthogonalEdgeStyle;rounded=1;orthogonalLoop=1;jettySize=auto;html=1;exitX=1;exitY=0.5;exitDx=0;exitDy=0;entryX=0;entryY=0.5;entryDx=0;entryDy=0;" edge="1" parent="1" source="_Kc1pAn8sklwfJphpSvI-50" target="_Kc1pAn8sklwfJphpSvI-57">
          <mxGeometry relative="1" as="geometry" />
        </mxCell>
        <mxCell id="_Kc1pAn8sklwfJphpSvI-50" value="Daftar Murid" style="rounded=1;whiteSpace=wrap;html=1;" vertex="1" parent="1">
          <mxGeometry x="1520" y="1162" width="120" height="60" as="geometry" />
        </mxCell>
        <mxCell id="_Kc1pAn8sklwfJphpSvI-51" value="Fitur Cari Murid berdasarkan nama" style="rounded=1;whiteSpace=wrap;html=1;" vertex="1" parent="1">
          <mxGeometry x="1520" y="1252" width="120" height="60" as="geometry" />
        </mxCell>
        <mxCell id="_Kc1pAn8sklwfJphpSvI-52" value="Fitur Review Materi" style="rounded=1;whiteSpace=wrap;html=1;" vertex="1" parent="1">
          <mxGeometry x="1870" y="1162" width="120" height="60" as="geometry" />
        </mxCell>
        <mxCell id="_Kc1pAn8sklwfJphpSvI-53" value="Jadwal Latihan" style="rounded=1;whiteSpace=wrap;html=1;" vertex="1" parent="1">
          <mxGeometry x="1700" y="1072" width="120" height="60" as="geometry" />
        </mxCell>
        <mxCell id="_Kc1pAn8sklwfJphpSvI-54" value="Menu Profil" style="rounded=1;whiteSpace=wrap;html=1;" vertex="1" parent="1">
          <mxGeometry x="1520" y="1342" width="120" height="60" as="geometry" />
        </mxCell>
        <mxCell id="_Kc1pAn8sklwfJphpSvI-55" value="Fitur naik kelas mau bagaimana??" style="text;html=1;align=center;verticalAlign=middle;resizable=0;points=[];autosize=1;strokeColor=#d6b656;fillColor=#fff2cc;" vertex="1" parent="1">
          <mxGeometry x="880" y="1150" width="210" height="30" as="geometry" />
        </mxCell>
        <mxCell id="_Kc1pAn8sklwfJphpSvI-56" style="edgeStyle=orthogonalEdgeStyle;rounded=1;orthogonalLoop=1;jettySize=auto;html=1;exitX=1;exitY=0.5;exitDx=0;exitDy=0;entryX=0;entryY=0.5;entryDx=0;entryDy=0;" edge="1" parent="1" source="_Kc1pAn8sklwfJphpSvI-57" target="_Kc1pAn8sklwfJphpSvI-52">
          <mxGeometry relative="1" as="geometry" />
        </mxCell>
        <mxCell id="_Kc1pAn8sklwfJphpSvI-57" value="Detail Murid" style="rounded=1;whiteSpace=wrap;html=1;" vertex="1" parent="1">
          <mxGeometry x="1700" y="1162" width="120" height="60" as="geometry" />
        </mxCell>
        <mxCell id="_Kc1pAn8sklwfJphpSvI-58" value="&lt;div style=&quot;text-align: left;&quot;&gt;&lt;span style=&quot;background-color: initial;&quot;&gt;- Nama Anak&lt;/span&gt;&lt;/div&gt;&lt;div style=&quot;text-align: left;&quot;&gt;&lt;span style=&quot;background-color: initial;&quot;&gt;- Kelas&lt;/span&gt;&lt;/div&gt;&lt;div style=&quot;text-align: left;&quot;&gt;&lt;span style=&quot;background-color: initial;&quot;&gt;...&lt;/span&gt;&lt;/div&gt;&lt;div style=&quot;text-align: left;&quot;&gt;&lt;span style=&quot;background-color: initial;&quot;&gt;- Logout&lt;/span&gt;&lt;/div&gt;" style="text;html=1;align=center;verticalAlign=middle;resizable=0;points=[];autosize=1;strokeColor=#b85450;fillColor=#f8cecc;" vertex="1" parent="1">
          <mxGeometry x="1620" y="750" width="90" height="70" as="geometry" />
        </mxCell>
        <mxCell id="_Kc1pAn8sklwfJphpSvI-59" value="&lt;div style=&quot;text-align: left;&quot;&gt;&lt;span style=&quot;background-color: initial;&quot;&gt;- Nama Coach&lt;/span&gt;&lt;/div&gt;&lt;div style=&quot;text-align: left;&quot;&gt;&lt;span style=&quot;background-color: initial;&quot;&gt;...&lt;/span&gt;&lt;/div&gt;&lt;div style=&quot;text-align: left;&quot;&gt;&lt;span style=&quot;background-color: initial;&quot;&gt;- Logout&lt;/span&gt;&lt;/div&gt;" style="text;html=1;align=center;verticalAlign=middle;resizable=0;points=[];autosize=1;strokeColor=#b85450;fillColor=#f8cecc;" vertex="1" parent="1">
          <mxGeometry x="1645" y="1342" width="100" height="60" as="geometry" />
        </mxCell>
        <mxCell id="_Kc1pAn8sklwfJphpSvI-60" style="edgeStyle=orthogonalEdgeStyle;rounded=1;orthogonalLoop=1;jettySize=auto;html=1;exitX=1;exitY=0.5;exitDx=0;exitDy=0;entryX=0;entryY=0.5;entryDx=0;entryDy=0;strokeColor=#000000;" edge="1" parent="1" source="_Kc1pAn8sklwfJphpSvI-61" target="_Kc1pAn8sklwfJphpSvI-63">
          <mxGeometry relative="1" as="geometry" />
        </mxCell>
        <mxCell id="_Kc1pAn8sklwfJphpSvI-61" value="Buka Website" style="rounded=1;whiteSpace=wrap;html=1;" vertex="1" parent="1">
          <mxGeometry x="885" y="1662" width="120" height="60" as="geometry" />
        </mxCell>
        <mxCell id="_Kc1pAn8sklwfJphpSvI-62" style="edgeStyle=orthogonalEdgeStyle;rounded=1;orthogonalLoop=1;jettySize=auto;html=1;exitX=1;exitY=0.5;exitDx=0;exitDy=0;entryX=0;entryY=0.5;entryDx=0;entryDy=0;strokeColor=#000000;" edge="1" parent="1" source="_Kc1pAn8sklwfJphpSvI-63" target="_Kc1pAn8sklwfJphpSvI-65">
          <mxGeometry relative="1" as="geometry" />
        </mxCell>
        <mxCell id="_Kc1pAn8sklwfJphpSvI-63" value="Landing Page /&lt;br&gt;Home Page" style="rounded=1;whiteSpace=wrap;html=1;" vertex="1" parent="1">
          <mxGeometry x="1080" y="1662" width="120" height="60" as="geometry" />
        </mxCell>
        <mxCell id="_Kc1pAn8sklwfJphpSvI-64" style="edgeStyle=orthogonalEdgeStyle;rounded=1;orthogonalLoop=1;jettySize=auto;html=1;exitX=1;exitY=0.5;exitDx=0;exitDy=0;entryX=0;entryY=0.5;entryDx=0;entryDy=0;strokeColor=#000000;" edge="1" parent="1" source="_Kc1pAn8sklwfJphpSvI-65" target="_Kc1pAn8sklwfJphpSvI-75">
          <mxGeometry relative="1" as="geometry" />
        </mxCell>
        <mxCell id="_Kc1pAn8sklwfJphpSvI-65" value="Menu" style="rounded=1;whiteSpace=wrap;html=1;" vertex="1" parent="1">
          <mxGeometry x="1270" y="1662" width="120" height="60" as="geometry" />
        </mxCell>
        <mxCell id="_Kc1pAn8sklwfJphpSvI-66" value="Banner" style="rounded=1;whiteSpace=wrap;html=1;" vertex="1" parent="1">
          <mxGeometry x="1270" y="1752" width="120" height="60" as="geometry" />
        </mxCell>
        <mxCell id="_Kc1pAn8sklwfJphpSvI-67" value="About /&lt;br&gt;Tentang Kami" style="rounded=1;whiteSpace=wrap;html=1;" vertex="1" parent="1">
          <mxGeometry x="1270" y="1832" width="120" height="60" as="geometry" />
        </mxCell>
        <mxCell id="_Kc1pAn8sklwfJphpSvI-68" style="edgeStyle=orthogonalEdgeStyle;rounded=1;orthogonalLoop=1;jettySize=auto;html=1;exitX=1;exitY=0.5;exitDx=0;exitDy=0;entryX=0.5;entryY=1;entryDx=0;entryDy=0;strokeColor=#000000;fontSize=8;jumpStyle=arc;" edge="1" parent="1" source="_Kc1pAn8sklwfJphpSvI-69" target="_Kc1pAn8sklwfJphpSvI-100">
          <mxGeometry relative="1" as="geometry">
            <Array as="points">
              <mxPoint x="1480" y="1942" />
              <mxPoint x="1480" y="1732" />
              <mxPoint x="2129" y="1732" />
            </Array>
          </mxGeometry>
        </mxCell>
        <mxCell id="_Kc1pAn8sklwfJphpSvI-69" value="List Kelas / Program" style="rounded=1;whiteSpace=wrap;html=1;" vertex="1" parent="1">
          <mxGeometry x="1270" y="1912" width="120" height="60" as="geometry" />
        </mxCell>
        <mxCell id="_Kc1pAn8sklwfJphpSvI-70" value="List Coach/Staff/Manager" style="rounded=1;whiteSpace=wrap;html=1;" vertex="1" parent="1">
          <mxGeometry x="1270" y="1992" width="120" height="60" as="geometry" />
        </mxCell>
        <mxCell id="_Kc1pAn8sklwfJphpSvI-71" style="edgeStyle=orthogonalEdgeStyle;rounded=1;orthogonalLoop=1;jettySize=auto;html=1;exitX=1;exitY=0.5;exitDx=0;exitDy=0;entryX=0.5;entryY=1;entryDx=0;entryDy=0;strokeColor=#000000;fontSize=8;" edge="1" parent="1" source="_Kc1pAn8sklwfJphpSvI-72" target="_Kc1pAn8sklwfJphpSvI-106">
          <mxGeometry relative="1" as="geometry">
            <Array as="points">
              <mxPoint x="1510" y="2102" />
              <mxPoint x="1510" y="2220" />
              <mxPoint x="1990" y="2220" />
            </Array>
          </mxGeometry>
        </mxCell>
        <mxCell id="_Kc1pAn8sklwfJphpSvI-72" value="Daftar" style="rounded=1;whiteSpace=wrap;html=1;" vertex="1" parent="1">
          <mxGeometry x="1270" y="2072" width="120" height="60" as="geometry" />
        </mxCell>
        <mxCell id="_Kc1pAn8sklwfJphpSvI-73" value="Kontak" style="rounded=1;whiteSpace=wrap;html=1;" vertex="1" parent="1">
          <mxGeometry x="1270" y="2151.5" width="120" height="60" as="geometry" />
        </mxCell>
        <mxCell id="_Kc1pAn8sklwfJphpSvI-74" style="edgeStyle=orthogonalEdgeStyle;rounded=1;orthogonalLoop=1;jettySize=auto;html=1;exitX=1;exitY=0.5;exitDx=0;exitDy=0;entryX=0;entryY=0.5;entryDx=0;entryDy=0;strokeColor=#000000;" edge="1" parent="1" source="_Kc1pAn8sklwfJphpSvI-75" target="_Kc1pAn8sklwfJphpSvI-99">
          <mxGeometry relative="1" as="geometry" />
        </mxCell>
        <mxCell id="_Kc1pAn8sklwfJphpSvI-75" value="Kelas / Program" style="rounded=1;whiteSpace=wrap;html=1;" vertex="1" parent="1">
          <mxGeometry x="1731" y="1662" width="120" height="60" as="geometry" />
        </mxCell>
        <mxCell id="_Kc1pAn8sklwfJphpSvI-76" value="Login" style="rounded=1;whiteSpace=wrap;html=1;" vertex="1" parent="1">
          <mxGeometry x="1731" y="1743" width="120" height="60" as="geometry" />
        </mxCell>
        <mxCell id="_Kc1pAn8sklwfJphpSvI-77" style="edgeStyle=orthogonalEdgeStyle;rounded=1;orthogonalLoop=1;jettySize=auto;html=1;exitX=1;exitY=0.5;exitDx=0;exitDy=0;entryX=0;entryY=0.25;entryDx=0;entryDy=0;strokeColor=#000000;fontSize=8;jumpStyle=arc;" edge="1" parent="1" source="_Kc1pAn8sklwfJphpSvI-78" target="_Kc1pAn8sklwfJphpSvI-106">
          <mxGeometry relative="1" as="geometry" />
        </mxCell>
        <mxCell id="_Kc1pAn8sklwfJphpSvI-78" value="Daftar" style="rounded=1;whiteSpace=wrap;html=1;" vertex="1" parent="1">
          <mxGeometry x="1731" y="1822" width="120" height="60" as="geometry" />
        </mxCell>
        <mxCell id="_Kc1pAn8sklwfJphpSvI-79" style="edgeStyle=orthogonalEdgeStyle;rounded=1;orthogonalLoop=1;jettySize=auto;html=1;exitX=1;exitY=0.5;exitDx=0;exitDy=0;entryX=0;entryY=0.5;entryDx=0;entryDy=0;strokeColor=#000000;fontSize=8;" edge="1" parent="1" source="_Kc1pAn8sklwfJphpSvI-80" target="_Kc1pAn8sklwfJphpSvI-107">
          <mxGeometry relative="1" as="geometry" />
        </mxCell>
        <mxCell id="_Kc1pAn8sklwfJphpSvI-80" value="Kontak" style="rounded=1;whiteSpace=wrap;html=1;" vertex="1" parent="1">
          <mxGeometry x="1731" y="1902" width="120" height="60" as="geometry" />
        </mxCell>
        <mxCell id="_Kc1pAn8sklwfJphpSvI-81" style="edgeStyle=orthogonalEdgeStyle;rounded=1;orthogonalLoop=1;jettySize=auto;html=1;exitX=1;exitY=0.5;exitDx=0;exitDy=0;entryX=0;entryY=0.5;entryDx=0;entryDy=0;strokeColor=#000000;fontSize=8;" edge="1" parent="1" source="_Kc1pAn8sklwfJphpSvI-82" target="_Kc1pAn8sklwfJphpSvI-108">
          <mxGeometry relative="1" as="geometry" />
        </mxCell>
        <mxCell id="_Kc1pAn8sklwfJphpSvI-82" value="Coach / Staff" style="rounded=1;whiteSpace=wrap;html=1;" vertex="1" parent="1">
          <mxGeometry x="1731" y="1982" width="120" height="60" as="geometry" />
        </mxCell>
        <mxCell id="_Kc1pAn8sklwfJphpSvI-83" style="edgeStyle=orthogonalEdgeStyle;rounded=1;orthogonalLoop=1;jettySize=auto;html=1;exitX=1;exitY=0.5;exitDx=0;exitDy=0;strokeColor=#000000;fontSize=8;" edge="1" parent="1" source="_Kc1pAn8sklwfJphpSvI-84" target="_Kc1pAn8sklwfJphpSvI-109">
          <mxGeometry relative="1" as="geometry" />
        </mxCell>
        <mxCell id="_Kc1pAn8sklwfJphpSvI-84" value="Lokasi" style="rounded=1;whiteSpace=wrap;html=1;" vertex="1" parent="1">
          <mxGeometry x="1731" y="2062" width="120" height="60" as="geometry" />
        </mxCell>
        <mxCell id="_Kc1pAn8sklwfJphpSvI-85" value="" style="endArrow=none;html=1;rounded=1;strokeColor=#000000;" edge="1" parent="1">
          <mxGeometry width="50" height="50" relative="1" as="geometry">
            <mxPoint x="1230" y="2261.9999999999995" as="sourcePoint" />
            <mxPoint x="1230" y="1691.9999999999995" as="targetPoint" />
          </mxGeometry>
        </mxCell>
        <mxCell id="_Kc1pAn8sklwfJphpSvI-86" value="" style="endArrow=classic;html=1;rounded=1;strokeColor=#000000;entryX=0;entryY=0.5;entryDx=0;entryDy=0;" edge="1" parent="1" target="_Kc1pAn8sklwfJphpSvI-66">
          <mxGeometry width="50" height="50" relative="1" as="geometry">
            <mxPoint x="1230" y="1781.9999999999995" as="sourcePoint" />
            <mxPoint x="1350" y="1942" as="targetPoint" />
          </mxGeometry>
        </mxCell>
        <mxCell id="_Kc1pAn8sklwfJphpSvI-87" value="" style="endArrow=classic;html=1;rounded=1;strokeColor=#000000;entryX=0;entryY=0.5;entryDx=0;entryDy=0;" edge="1" parent="1" target="_Kc1pAn8sklwfJphpSvI-67">
          <mxGeometry width="50" height="50" relative="1" as="geometry">
            <mxPoint x="1230" y="1861.9999999999995" as="sourcePoint" />
            <mxPoint x="1280" y="1792" as="targetPoint" />
          </mxGeometry>
        </mxCell>
        <mxCell id="_Kc1pAn8sklwfJphpSvI-88" value="" style="endArrow=classic;html=1;rounded=1;strokeColor=#000000;entryX=0;entryY=0.5;entryDx=0;entryDy=0;" edge="1" parent="1" target="_Kc1pAn8sklwfJphpSvI-69">
          <mxGeometry width="50" height="50" relative="1" as="geometry">
            <mxPoint x="1230" y="1941.9999999999995" as="sourcePoint" />
            <mxPoint x="1290" y="1802" as="targetPoint" />
          </mxGeometry>
        </mxCell>
        <mxCell id="_Kc1pAn8sklwfJphpSvI-89" value="" style="endArrow=classic;html=1;rounded=1;strokeColor=#000000;entryX=0;entryY=0.5;entryDx=0;entryDy=0;" edge="1" parent="1" target="_Kc1pAn8sklwfJphpSvI-70">
          <mxGeometry width="50" height="50" relative="1" as="geometry">
            <mxPoint x="1230" y="2021.9999999999995" as="sourcePoint" />
            <mxPoint x="1300" y="1812" as="targetPoint" />
          </mxGeometry>
        </mxCell>
        <mxCell id="_Kc1pAn8sklwfJphpSvI-90" value="" style="endArrow=classic;html=1;rounded=1;strokeColor=#000000;entryX=0;entryY=0.5;entryDx=0;entryDy=0;" edge="1" parent="1" target="_Kc1pAn8sklwfJphpSvI-72">
          <mxGeometry width="50" height="50" relative="1" as="geometry">
            <mxPoint x="1230" y="2101.9999999999995" as="sourcePoint" />
            <mxPoint x="1310" y="1822" as="targetPoint" />
          </mxGeometry>
        </mxCell>
        <mxCell id="_Kc1pAn8sklwfJphpSvI-91" value="" style="endArrow=classic;html=1;rounded=1;strokeColor=#000000;entryX=0;entryY=0.5;entryDx=0;entryDy=0;" edge="1" parent="1" target="_Kc1pAn8sklwfJphpSvI-73">
          <mxGeometry width="50" height="50" relative="1" as="geometry">
            <mxPoint x="1230" y="2181.9999999999995" as="sourcePoint" />
            <mxPoint x="1320" y="1832" as="targetPoint" />
          </mxGeometry>
        </mxCell>
        <mxCell id="_Kc1pAn8sklwfJphpSvI-92" value="" style="endArrow=none;html=1;rounded=1;strokeColor=#000000;" edge="1" parent="1">
          <mxGeometry width="50" height="50" relative="1" as="geometry">
            <mxPoint x="1661.0000000000005" y="2271.9999999999995" as="sourcePoint" />
            <mxPoint x="1661.1699999999996" y="1691.9999999999995" as="targetPoint" />
          </mxGeometry>
        </mxCell>
        <mxCell id="_Kc1pAn8sklwfJphpSvI-93" value="" style="endArrow=classic;html=1;rounded=1;strokeColor=#000000;entryX=0;entryY=0.5;entryDx=0;entryDy=0;" edge="1" parent="1" target="_Kc1pAn8sklwfJphpSvI-76">
          <mxGeometry width="50" height="50" relative="1" as="geometry">
            <mxPoint x="1661.0000000000005" y="1773" as="sourcePoint" />
            <mxPoint x="1571" y="1892" as="targetPoint" />
          </mxGeometry>
        </mxCell>
        <mxCell id="_Kc1pAn8sklwfJphpSvI-94" value="" style="endArrow=classic;html=1;rounded=1;strokeColor=#000000;entryX=0;entryY=0.5;entryDx=0;entryDy=0;" edge="1" parent="1" target="_Kc1pAn8sklwfJphpSvI-78">
          <mxGeometry width="50" height="50" relative="1" as="geometry">
            <mxPoint x="1661.0000000000005" y="1851.9999999999995" as="sourcePoint" />
            <mxPoint x="1741" y="1783" as="targetPoint" />
          </mxGeometry>
        </mxCell>
        <mxCell id="_Kc1pAn8sklwfJphpSvI-95" value="" style="endArrow=classic;html=1;rounded=1;strokeColor=#000000;entryX=0;entryY=0.5;entryDx=0;entryDy=0;" edge="1" parent="1" target="_Kc1pAn8sklwfJphpSvI-80">
          <mxGeometry width="50" height="50" relative="1" as="geometry">
            <mxPoint x="1661.0000000000005" y="1931.9999999999995" as="sourcePoint" />
            <mxPoint x="1751" y="1793" as="targetPoint" />
          </mxGeometry>
        </mxCell>
        <mxCell id="_Kc1pAn8sklwfJphpSvI-96" value="" style="endArrow=classic;html=1;rounded=1;strokeColor=#000000;entryX=0;entryY=0.5;entryDx=0;entryDy=0;" edge="1" parent="1" target="_Kc1pAn8sklwfJphpSvI-82">
          <mxGeometry width="50" height="50" relative="1" as="geometry">
            <mxPoint x="1661.0000000000005" y="2011.9999999999995" as="sourcePoint" />
            <mxPoint x="1741" y="1942" as="targetPoint" />
          </mxGeometry>
        </mxCell>
        <mxCell id="_Kc1pAn8sklwfJphpSvI-97" value="" style="endArrow=classic;html=1;rounded=1;strokeColor=#000000;entryX=0;entryY=0.5;entryDx=0;entryDy=0;" edge="1" parent="1" target="_Kc1pAn8sklwfJphpSvI-84">
          <mxGeometry width="50" height="50" relative="1" as="geometry">
            <mxPoint x="1661.0000000000005" y="2091.9999999999995" as="sourcePoint" />
            <mxPoint x="1751" y="1952" as="targetPoint" />
          </mxGeometry>
        </mxCell>
        <mxCell id="_Kc1pAn8sklwfJphpSvI-98" style="edgeStyle=orthogonalEdgeStyle;rounded=1;orthogonalLoop=1;jettySize=auto;html=1;exitX=1;exitY=0.5;exitDx=0;exitDy=0;entryX=0;entryY=0.5;entryDx=0;entryDy=0;strokeColor=#000000;" edge="1" parent="1" source="_Kc1pAn8sklwfJphpSvI-99" target="_Kc1pAn8sklwfJphpSvI-100">
          <mxGeometry relative="1" as="geometry" />
        </mxCell>
        <mxCell id="_Kc1pAn8sklwfJphpSvI-99" value="List Kelas / Program" style="rounded=1;whiteSpace=wrap;html=1;" vertex="1" parent="1">
          <mxGeometry x="1909" y="1662" width="120" height="60" as="geometry" />
        </mxCell>
        <mxCell id="_Kc1pAn8sklwfJphpSvI-100" value="Detail Kelas / Program" style="rounded=1;whiteSpace=wrap;html=1;" vertex="1" parent="1">
          <mxGeometry x="2069" y="1662" width="120" height="60" as="geometry" />
        </mxCell>
        <mxCell id="_Kc1pAn8sklwfJphpSvI-101" style="edgeStyle=orthogonalEdgeStyle;rounded=1;orthogonalLoop=1;jettySize=auto;html=1;exitX=1;exitY=0.5;exitDx=0;exitDy=0;entryX=0;entryY=0.5;entryDx=0;entryDy=0;strokeColor=#000000;fontSize=8;" edge="1" parent="1" source="_Kc1pAn8sklwfJphpSvI-102" target="_Kc1pAn8sklwfJphpSvI-106">
          <mxGeometry relative="1" as="geometry" />
        </mxCell>
        <mxCell id="_Kc1pAn8sklwfJphpSvI-102" value="Pembayaran" style="rounded=1;whiteSpace=wrap;html=1;" vertex="1" parent="1">
          <mxGeometry x="1732" y="2142" width="120" height="60" as="geometry" />
        </mxCell>
        <mxCell id="_Kc1pAn8sklwfJphpSvI-103" value="" style="endArrow=classic;html=1;rounded=1;strokeColor=#000000;entryX=0;entryY=0.5;entryDx=0;entryDy=0;" edge="1" parent="1" target="_Kc1pAn8sklwfJphpSvI-102">
          <mxGeometry width="50" height="50" relative="1" as="geometry">
            <mxPoint x="1660" y="2171.9999999999995" as="sourcePoint" />
            <mxPoint x="1741" y="2101.9999999999995" as="targetPoint" />
          </mxGeometry>
        </mxCell>
        <mxCell id="_Kc1pAn8sklwfJphpSvI-104" value="&lt;font style=&quot;font-size: 8px;&quot;&gt;*muncul ketika sudah login&lt;/font&gt;" style="text;html=1;align=center;verticalAlign=middle;resizable=0;points=[];autosize=1;strokeColor=none;fillColor=none;" vertex="1" parent="1">
          <mxGeometry x="1720" y="2192" width="120" height="30" as="geometry" />
        </mxCell>
        <mxCell id="_Kc1pAn8sklwfJphpSvI-105" style="edgeStyle=orthogonalEdgeStyle;rounded=1;jumpStyle=arc;orthogonalLoop=1;jettySize=auto;html=1;exitX=1;exitY=0.5;exitDx=0;exitDy=0;entryX=0;entryY=0.5;entryDx=0;entryDy=0;strokeColor=#000000;fontSize=8;" edge="1" parent="1" source="_Kc1pAn8sklwfJphpSvI-106" target="_Kc1pAn8sklwfJphpSvI-110">
          <mxGeometry relative="1" as="geometry" />
        </mxCell>
        <mxCell id="_Kc1pAn8sklwfJphpSvI-106" value="Detail Pembayaran" style="rounded=1;whiteSpace=wrap;html=1;" vertex="1" parent="1">
          <mxGeometry x="1930" y="2142" width="120" height="60" as="geometry" />
        </mxCell>
        <mxCell id="_Kc1pAn8sklwfJphpSvI-107" value="Detail Kontak" style="rounded=1;whiteSpace=wrap;html=1;" vertex="1" parent="1">
          <mxGeometry x="1930" y="1902" width="120" height="60" as="geometry" />
        </mxCell>
        <mxCell id="_Kc1pAn8sklwfJphpSvI-108" value="List &amp;amp; Detail Coach" style="rounded=1;whiteSpace=wrap;html=1;" vertex="1" parent="1">
          <mxGeometry x="1930" y="1982" width="120" height="60" as="geometry" />
        </mxCell>
        <mxCell id="_Kc1pAn8sklwfJphpSvI-109" value="Detail Lokasi Latihan" style="rounded=1;whiteSpace=wrap;html=1;" vertex="1" parent="1">
          <mxGeometry x="1930" y="2062" width="120" height="60" as="geometry" />
        </mxCell>
        <mxCell id="_Kc1pAn8sklwfJphpSvI-110" value="Invoice" style="rounded=1;whiteSpace=wrap;html=1;" vertex="1" parent="1">
          <mxGeometry x="2078" y="2142" width="120" height="60" as="geometry" />
        </mxCell>
        <mxCell id="_Kc1pAn8sklwfJphpSvI-111" style="edgeStyle=orthogonalEdgeStyle;rounded=0;orthogonalLoop=1;jettySize=auto;html=1;exitX=1;exitY=0.5;exitDx=0;exitDy=0;entryX=0;entryY=0.5;entryDx=0;entryDy=0;fontSize=14;" edge="1" parent="1" source="_Kc1pAn8sklwfJphpSvI-112" target="_Kc1pAn8sklwfJphpSvI-119">
          <mxGeometry relative="1" as="geometry" />
        </mxCell>
        <mxCell id="_Kc1pAn8sklwfJphpSvI-112" value="Download" style="rounded=1;whiteSpace=wrap;html=1;" vertex="1" parent="1">
          <mxGeometry x="1735" y="2242" width="120" height="60" as="geometry" />
        </mxCell>
        <mxCell id="_Kc1pAn8sklwfJphpSvI-113" value="" style="endArrow=classic;html=1;rounded=1;strokeColor=#000000;entryX=0;entryY=0.5;entryDx=0;entryDy=0;" edge="1" parent="1" target="_Kc1pAn8sklwfJphpSvI-112">
          <mxGeometry width="50" height="50" relative="1" as="geometry">
            <mxPoint x="1660" y="2271.9999999999995" as="sourcePoint" />
            <mxPoint x="1742" y="2182" as="targetPoint" />
          </mxGeometry>
        </mxCell>
        <mxCell id="_Kc1pAn8sklwfJphpSvI-114" style="edgeStyle=orthogonalEdgeStyle;rounded=1;orthogonalLoop=1;jettySize=auto;html=1;exitX=1;exitY=0.5;exitDx=0;exitDy=0;entryX=0.5;entryY=1;entryDx=0;entryDy=0;fontSize=14;" edge="1" parent="1" source="_Kc1pAn8sklwfJphpSvI-115" target="_Kc1pAn8sklwfJphpSvI-119">
          <mxGeometry relative="1" as="geometry">
            <Array as="points">
              <mxPoint x="1520" y="2262" />
              <mxPoint x="1520" y="2322" />
              <mxPoint x="1969" y="2322" />
            </Array>
          </mxGeometry>
        </mxCell>
        <mxCell id="_Kc1pAn8sklwfJphpSvI-115" value="Aplikasi" style="rounded=1;whiteSpace=wrap;html=1;" vertex="1" parent="1">
          <mxGeometry x="1270" y="2232" width="120" height="60" as="geometry" />
        </mxCell>
        <mxCell id="_Kc1pAn8sklwfJphpSvI-116" value="" style="endArrow=classic;html=1;rounded=1;strokeColor=#000000;entryX=0;entryY=0.5;entryDx=0;entryDy=0;" edge="1" parent="1" target="_Kc1pAn8sklwfJphpSvI-115">
          <mxGeometry width="50" height="50" relative="1" as="geometry">
            <mxPoint x="1230" y="2261.9999999999995" as="sourcePoint" />
            <mxPoint x="1280" y="2191.5000000000005" as="targetPoint" />
          </mxGeometry>
        </mxCell>
        <mxCell id="_Kc1pAn8sklwfJphpSvI-117" value="&lt;font style=&quot;font-size: 14px;&quot;&gt;Website&lt;/font&gt;" style="text;html=1;align=center;verticalAlign=middle;resizable=0;points=[];autosize=1;strokeColor=none;fillColor=none;fontStyle=1" vertex="1" parent="1">
          <mxGeometry x="845" y="1630" width="80" height="30" as="geometry" />
        </mxCell>
        <mxCell id="_Kc1pAn8sklwfJphpSvI-118" value="&lt;b&gt;&lt;font style=&quot;font-size: 14px;&quot;&gt;Mobile&lt;/font&gt;&lt;/b&gt;" style="text;html=1;strokeColor=none;fillColor=none;align=center;verticalAlign=middle;whiteSpace=wrap;rounded=0;dashed=1;" vertex="1" parent="1">
          <mxGeometry x="850" y="20" width="60" height="30" as="geometry" />
        </mxCell>
        <mxCell id="_Kc1pAn8sklwfJphpSvI-119" value="Detail Link Google Play / App Store" style="rounded=1;whiteSpace=wrap;html=1;" vertex="1" parent="1">
          <mxGeometry x="1909" y="2242" width="120" height="60" as="geometry" />
        </mxCell>
      </root>
    </mxGraphModel>
  </diagram>
</mxfile>
